<?xml version="1.0" encoding="UTF-8" standalone="no"?>
<!-- Created with Inkscape (http://www.inkscape.org/) -->

<svg
   xmlns:dc="http://purl.org/dc/elements/1.1/"
   xmlns:cc="http://creativecommons.org/ns#"
   xmlns:rdf="http://www.w3.org/1999/02/22-rdf-syntax-ns#"
   xmlns:svg="http://www.w3.org/2000/svg"
   xmlns="http://www.w3.org/2000/svg"
   version="1.1"
   width="500"
   height="203"
   id="svg2985">
  <metadata
     id="metadata2991">
    <rdf:RDF>
      <cc:Work
         rdf:about="">
        <dc:format>image/svg+xml</dc:format>
        <dc:type
           rdf:resource="http://purl.org/dc/dcmitype/StillImage" />
        <dc:title></dc:title>
      </cc:Work>
    </rdf:RDF>
  </metadata>
  <defs
     id="defs2989" />
  <path
     d="m 348.5,199.32881 c -19.0643,-1.92621 -38.90212,-9.53134 -51.37943,-19.69709 -10.36534,-8.44505 -19.82933,-25.70948 -28.22036,-51.48025 -4.14864,-12.74139 -5.6891,-16.22785 -8.04661,-18.21157 -5.93082,-4.99045 -17.42852,-6.04373 -24.89171,-2.28026 -5.66016,2.85425 -7.933,6.93649 -11.83123,21.25 -5.78321,21.23474 -13.55714,35.82718 -24.76707,46.49021 -9.44914,8.98817 -18.0313,13.14843 -35.20755,17.06713 -21.5552,4.91774 -39.02706,4.06763 -63.03125,-3.06685 C 84.036203,184.3211 74.017363,178.33375 62.423413,166.27185 50.684053,154.05867 40.981773,137.78976 30.003473,111.90964 21.179763,91.10873 19.349433,88.462462 11.310573,84.883588 5.6132631,82.347163 6.3525331,83.796437 2.0570431,66.743025 -0.38986687,57.02862 -0.46096687,55.201739 1.4630131,51.481159 c 1.64195,-3.175176 4.2252,-4.567889 5.91374,-3.188288 0.63503,0.518851 25.8978999,1.148822 58.1232499,1.4494 31.35,0.292413 59.249997,0.805012 61.999997,1.139108 2.75,0.334096 11.075,1.283998 18.5,2.110893 21.28456,2.370385 54.84455,8.213892 72.40832,12.607825 23.85419,5.967609 29.78383,6.067018 56.59343,0.948783 C 335.17208,55.061726 362.39217,52.411065 420,52.429115 c 29.5498,0.0093 50.55637,0.810061 67.8903,2.588084 4.641,0.476049 6.19887,0.345737 5.69099,-0.476039 -1.31832,-2.133084 1.30392,-1.133499 2.86201,1.090984 2.03756,2.909028 1.96713,5.093367 -0.51887,16.093478 -3.4847,15.419161 -3.6915,15.799302 -10.43622,19.184016 -7.10472,3.565371 -10.47225,8.488189 -16.05212,23.465762 -5.04249,13.53514 -17.59717,38.45964 -22.93598,45.53424 -14.28312,18.92693 -29.00538,28.72877 -54.05221,35.98706 -15.35467,4.44961 -25.80221,5.26551 -43.9479,3.43211 z m 42.73375,-13.78136 c 18.10508,-4.83754 30.98525,-12.37708 39.40775,-23.06774 13.37078,-16.9715 23.63771,-48.15281 23.78644,-72.240918 0.0819,-13.263427 -0.81397,-15.447275 -8.02196,-19.555249 C 438.28743,66.056624 429.51571,64.895758 404,65.07146 c -59.59145,0.410349 -102.23213,7.334905 -115.79385,18.804132 -6.7944,5.74606 -8.7892,13.437577 -7.20386,27.776538 1.62956,14.73905 5.58228,29.11818 11.20394,40.75751 9.09359,18.82778 22.83124,29.5671 43.5981,34.08256 12.27552,2.66914 43.92276,2.12973 55.42942,-0.94475 z m -225.4198,-3.22244 c 24.57574,-6.27085 38.07656,-23.28384 45.16575,-56.91537 4.34138,-20.59578 3.67319,-33.325893 -2.118,-40.351613 C 200.77769,75.25072 171.68895,66.965907 138,64.875786 c -5.775,-0.358291 -11.85,-0.795089 -13.5,-0.970663 -10.5385,-1.121383 -46.659427,-1.5371 -56.499997,-0.65026 -15.24426,1.373824 -20.14636,3.599328 -23.87504,10.839034 -1.62491,3.154973 -1.3817,17.741375 0.45747,27.436713 1.88139,9.91786 7.07516,25.82251 11.86441,36.33183 7.13986,15.66738 19.62929,30.043 31.087,35.78184 20.613987,10.32496 56.319067,14.28441 78.280107,8.68073 z M 480.67001,78.288587 c 1.7435,-0.53969 3.69572,-1.614694 4.33825,-2.3889 1.17792,-1.419306 0.83961,-1.580682 -6.12545,-2.92193 -5.44601,-1.048725 -17.45518,3.327869 -15.15644,5.523576 2.01179,1.921614 10.38822,1.816439 16.94364,-0.212746 z M 33.346953,74.542259 c 1.57015,-0.617884 1.63359,-0.90388 0.4233,-1.908331 -4.32573,-3.590034 -14.99893,-5.371046 -20.1172,-3.356911 -1.67182,0.657891 -1.69642,0.851737 -0.25948,2.044295 4.03084,3.345296 15.09769,5.131748 19.95338,3.220947 z M 258.91667,72.777313 c 0.22916,-0.202221 -4.30069,-0.367675 -10.06634,-0.367675 -11.84836,0 -15.39241,-0.547382 -39.68262,-6.129023 -9.53276,-2.19053 -17.77104,-3.836534 -18.30728,-3.657787 -1.63132,0.543774 41.18207,10.115321 48.13957,10.762292 6.16625,0.573393 19.0227,0.181047 19.91667,-0.607807 z m 4.8143,-1.060666 c -0.97297,-0.253543 -2.32297,-0.236869 -3,0.03705 -0.67703,0.273923 0.11903,0.481368 1.76903,0.460988 1.65,-0.02038 2.20394,-0.244498 1.23097,-0.498042 z m 5.51903,-0.96929 c -0.6875,-0.277412 -1.8125,-0.277412 -2.5,0 -0.6875,0.277413 -0.125,0.504386 1.25,0.504386 1.375,0 1.9375,-0.226973 1.25,-0.504386 z m 5,-1 c -0.6875,-0.277412 -1.8125,-0.277412 -2.5,0 -0.6875,0.277413 -0.125,0.504386 1.25,0.504386 1.375,0 1.9375,-0.226973 1.25,-0.504386 z m 5,-1 c -0.6875,-0.277412 -1.8125,-0.277412 -2.5,0 -0.6875,0.277413 -0.125,0.504386 1.25,0.504386 1.375,0 1.9375,-0.226973 1.25,-0.504386 z m 9.25,-1.337719 c 2.67601,-0.680928 2.73001,-0.76337 0.5,-0.76337 -1.375,0 -3.85,0.343516 -5.5,0.76337 -2.67601,0.680928 -2.73001,0.76337 -0.5,0.76337 1.375,0 3.85,-0.343516 5.5,-0.76337 z M 331,61.381023 c 30.22698,-4.024833 34.64117,-4.739776 30.20681,-4.892438 -7.34604,-0.2529 -67.84919,8.1886 -69.20681,9.655849 -0.275,0.297207 1.525,0.260792 4,-0.08092 2.475,-0.341715 18.225,-2.448834 35,-4.682487 z m -142.75,0.366334 c -0.6875,-0.277412 -1.8125,-0.277412 -2.5,0 -0.6875,0.277413 -0.125,0.504386 1.25,0.504386 1.375,0 1.9375,-0.226973 1.25,-0.504386 z m -5,-1 c -0.6875,-0.277412 -1.8125,-0.277412 -2.5,0 -0.6875,0.277413 -0.125,0.504386 1.25,0.504386 1.375,0 1.9375,-0.226973 1.25,-0.504386 z m -5.51903,-1.03071 c -0.97297,-0.253543 -2.32297,-0.236869 -3,0.03705 -0.67703,0.273923 0.11903,0.481368 1.76903,0.460988 1.65,-0.02038 2.20394,-0.244498 1.23097,-0.498042 z m -6,-1 c -0.97297,-0.253543 -2.32297,-0.236869 -3,0.03705 -0.67703,0.273923 0.11903,0.481368 1.76903,0.460988 1.65,-0.02038 2.20394,-0.244498 1.23097,-0.498042 z m -6,-1 c -0.97297,-0.253543 -2.32297,-0.236869 -3,0.03705 -0.67703,0.273923 0.11903,0.481368 1.76903,0.460988 1.65,-0.02038 2.20394,-0.244498 1.23097,-0.498042 z M 152.5,55.844633 c -16.89208,-2.462751 -62.746597,-5.415519 -61.325717,-3.949024 0.37086,0.382761 10.945857,1.340412 23.499997,2.128112 12.55415,0.787701 26.20072,1.812915 30.32572,2.278254 12.28219,1.385546 17.82296,1.047676 7.5,-0.457342 z M 275,61.684052 c 0,-4.80784 14.33402,-18.249699 40.5,-37.979254 20.27543,-15.2879798 24.3392,-16.5614598 42.81841,-13.41814 6.69987,1.13966 17.35659,2.78016 23.68159,3.64558 16.08889,2.20134 34.31145,6.8226 49.10178,12.45224 18.11252,6.89417 55.25725,24.443924 52.63756,24.869639 -1.16589,0.189464 -11.59758,-0.148036 -23.18153,-0.75 -11.58395,-0.601963 -32.67793,-1.094479 -46.87551,-1.094479 -17.36996,0 -26.52827,-0.372704 -27.99804,-1.1394 C 384.48292,47.643569 379.45,43.234106 374.5,38.471432 363.41304,27.804038 355.41071,23.407808 347.09028,23.413378 c -3.71368,0.002 -6.62926,0.6373 -8.68533,1.89107 -2.95674,1.80299 -19.94224,20.512834 -25.70402,28.313452 -2.06486,2.795512 -3.65737,3.842772 -6.46999,4.254742 -3.8976,0.570891 -26.44469,4.395574 -29.48094,5.000878 -1.05947,0.211215 -1.75,-0.258136 -1.75,-1.189468 z m -79.54113,-4.187034 c -7.17262,-1.491144 -13.62912,-3.074568 -14.34778,-3.51872 -0.71865,-0.444152 -2.50014,-2.688942 -3.95886,-4.988423 -3.71022,-5.848646 -17.04613,-24.086647 -20.65283,-28.244507 -4.25669,-4.90718 -9.33514,-5.47059 -17.15081,-1.90273 -4.43513,2.02463 -8.20343,5.1019 -15.5924,12.73306 -9.67141,9.988411 -9.805,10.080969 -17.97942,12.457508 -8.051827,2.340898 -9.195637,2.399708 -51.256187,2.63538 l -43.02058,0.241052 23,-11.591 c 36.03362,-18.15939 54.09225,-24.33454 86.183507,-29.4704398 33.95333,-5.43390997 34.77714,-5.26763997 51.99738,10.4948398 13.25274,12.13085 31.70125,30.874319 38.20575,38.8166 l 4.2996,5.25 -3.34312,-0.100725 c -1.83872,-0.0554 -9.21163,-1.320751 -16.38425,-2.811895 z"
     id="path3013"
     style="fill:#000000" />
</svg>
